<?xml version="1.0" encoding="utf-8"?>
<!-- Generator: Adobe Illustrator 24.2.1, SVG Export Plug-In . SVG Version: 6.00 Build 0)  -->
<svg version="1.1" xmlns="http://www.w3.org/2000/svg" xmlns:xlink="http://www.w3.org/1999/xlink" x="0px" y="0px"
	 viewBox="0 0 2400 1800" style="enable-background:new 0 0 2400 1800;" xml:space="preserve">
<style type="text/css">
	.st0{fill:#5784BB;}
	.st1{opacity:0.14;fill:#FCFAFA;}
	.st2{opacity:0.14;fill:#5784BB;}
	.st3{clip-path:url(#SVGID_2_);}
	.st4{fill:#FFBB02;}
	.st5{fill:#FBE456;}
	.st6{fill:#FFFFFF;}
	.st7{fill:#3488C4;}
	.st8{opacity:0.31;fill:#151515;}
	.st9{fill:#E5E3E3;}
	.st10{fill:#C4C4C4;}
	.st11{fill:#3AC1CD;}
	.st12{fill:#FDEE91;}
	.st13{fill:#0A0A0A;}
	.st14{fill:#FF7373;}
	.st15{opacity:0.38;fill:#DD4A4A;}
	.st16{fill:#DDDBDB;}
	.st17{fill:#FFA701;}
	.st18{fill:#F46262;}
	.st19{fill:#D62525;}
	.st20{fill:#010101;}
	.st21{fill:#231F20;}
</style>
<g id="Background">
	<g>
		<rect x="0.66" y="0.15" class="st0" width="2399.34" height="1799.85"/>
		<path class="st1" d="M2316.62,900c0,369.31-179.29,696.74-455.57,900H538.95C262.67,1596.74,83.38,1269.31,83.38,900
			c0-369.21,179.2-696.57,455.36-899.85h1322.52C2137.42,203.43,2316.62,530.79,2316.62,900z"/>
		<path class="st2" d="M2399.49,5.7V0h-527.34l-182.7,231.52c-69.12-50.75-146.39-91.02-229.5-118.51L1497.6,0H946.11l28.73,102.05
			C897,123.92,823.8,156.88,757.05,199.11l-3.77-5.94l-10.74-16.92L630.61,0H7.49l533.16,397.16
			c-43.86,57.38-80.4,120.67-108.21,188.45l-15.3-6.03l-25.99-10.25L-0.51,414.97c0,0,0,206.86,0,436.19l372.08,11.39
			c-0.55,12.41-0.85,24.9-0.85,37.45c0,25.84,1.19,51.39,3.51,76.62l-374.74,52.4v427.21c0,6.33,204.66-94.05,444.94-214.08
			c26.03,57.35,58.4,111.22,96.22,160.69L7.49,1800h623.12l126.44-199.1c66.75,42.23,139.95,75.18,217.79,97.05L946.11,1800h551.49
			l-37.64-113.01c83.1-27.49,160.38-67.77,229.5-118.51l182.7,231.52h527.34v-5.7l-403.03-287.34l-75.97-54.16l-36.39-25.94v-0.01
			l-28.58-20.37c39.02-50.47,72.35-105.56,99.02-164.32c240.28,120.03,444.94,220.4,444.94,214.07v-427.21l-374.74-52.4
			c2.31-25.23,3.51-50.79,3.51-76.62c0-12.55-0.3-25.03-0.85-37.44l372.08-11.4c0-229.33,0-436.19,0-436.19l-412.24,162.47
			l-20.71,8.17c-28.4-69.22-65.91-133.74-111.01-192.08L2399.49,5.7z"/>
		<circle class="st1" cx="1200" cy="900" r="712.19"/>
	</g>
</g>
<g id="Mid-Ground">
	<g>
		<defs>
			<rect id="SVGID_1_" x="0.66" y="0.15" width="2399.34" height="1799.85"/>
		</defs>
		<clipPath id="SVGID_2_">
			<use xlink:href="#SVGID_1_"  style="overflow:visible;"/>
		</clipPath>
		<g class="st3">
			<g>
				<polygon class="st4" points="-50.36,1833.46 -58.14,1784.62 -104.32,1802.31 -66.75,1737.23 -12.79,1768.38 				"/>
				<path class="st5" d="M465.25,1521.57l-226.52,392.35c-5.56,9.63-16.97,13.46-25.48,8.55l-296.65-171.27
					c-8.52-4.92-10.91-16.72-5.35-26.35l226.52-392.35c5.57-9.64,16.98-13.47,25.5-8.55l296.65,171.27
					C468.42,1500.13,470.81,1511.93,465.25,1521.57z"/>
				<path class="st6" d="M389.93,1557.73l-49.19,85.19c-2.66,4.6-8.11,6.43-12.17,4.08l-202.77-117.07
					c-4.06-2.35-5.21-7.98-2.55-12.58l49.19-85.19c2.66-4.61,8.11-6.43,12.17-4.08l202.77,117.07
					C391.44,1547.5,392.59,1553.12,389.93,1557.73z"/>
				<path class="st6" d="M389.93,1557.73l-39.3,68.06l-196.8-113.62c-4.06-2.35-5.21-7.98-2.55-12.58l39.3-68.06l196.8,113.62
					C391.44,1547.5,392.59,1553.12,389.93,1557.73z"/>
				<path class="st4" d="M191.59,1340.3l-246.67,427.24l-28.33-16.36c-8.52-4.92-10.91-16.72-5.35-26.35l226.52-392.35
					c5.57-9.64,16.98-13.47,25.5-8.55L191.59,1340.3z"/>
			</g>
			<g>
				<path class="st7" d="M1518.81,1795.28L1518.81,1795.28c-30.58,5.61-59.92-14.63-65.54-45.21l-26.6-144.95l113.05-20.33
					l26.6,144.95C1569.64,1760.32,1549.4,1789.67,1518.81,1795.28z"/>
				<path class="st8" d="M1516.67,1783.6L1516.67,1783.6c-22.71,4.17-44.5-10.86-48.67-33.58l-27.08-147.54l82.25-15.1l27.08,147.54
					C1554.41,1757.64,1539.38,1779.43,1516.67,1783.6z"/>
				<polygon class="st9" points="1501.08,1531.28 1540.39,1745.44 1478.5,1756.8 1445.83,1578.8 1457.34,1568.9 				"/>
				<polygon class="st10" points="1457.34,1568.9 1491.4,1754.43 1478.5,1756.8 1445.83,1578.8 				"/>
				<circle class="st11" cx="1508.73" cy="1740.31" r="34.57"/>
				
					<ellipse transform="matrix(0.9995 -0.0315 0.0315 0.9995 -54.0478 48.3669)" class="st12" cx="1508.73" cy="1740.31" rx="21.55" ry="21.55"/>
			</g>
			<g>
				<path class="st7" d="M1905.12,1534.33l2.64,9.26c0.5,1.74-0.51,3.56-2.25,4.05l-21.09,6.02c-1.74,0.5-3.56-0.51-4.06-2.26
					l-2.64-9.26c-0.5-1.74,0.51-3.55,2.26-4.05l21.09-6.02C1902.82,1531.58,1904.63,1532.59,1905.12,1534.33z"/>
				<path class="st4" d="M1984.8,1799.25l-4.93,40.04l-0.75,6.13c-0.02,0.14-0.04,0.27-0.08,0.39c-0.04,0.14-0.08,0.27-0.13,0.4
					c-0.01,0.01-0.01,0.02-0.01,0.02c-0.05,0.11-0.1,0.21-0.17,0.31c-0.06,0.11-0.14,0.22-0.23,0.33c-0.05,0.06-0.11,0.12-0.17,0.18
					c-0.15,0.15-0.31,0.28-0.49,0.39c-0.1,0.06-0.2,0.12-0.31,0.17c-0.08,0.03-0.15,0.06-0.23,0.09c-0.06,0.02-0.11,0.04-0.17,0.05
					c-0.13,0.04-0.26,0.07-0.4,0.09c-0.13,0.01-0.27,0.02-0.4,0.02c-0.1,0-0.19,0-0.29-0.02h-0.06c-0.06,0-0.12-0.01-0.18-0.03
					c-0.06-0.01-0.11-0.02-0.17-0.04c-0.01,0-0.02-0.01-0.03-0.01c-0.04-0.01-0.07-0.02-0.11-0.03c-0.2-0.06-0.39-0.15-0.57-0.26
					c-0.06-0.04-0.13-0.08-0.19-0.13c-0.02-0.02-0.04-0.03-0.06-0.05c-0.16-0.12-0.32-0.28-0.47-0.46l-0.04-0.06l-3.66-4.53
					l-25.49-31.64c-0.17-0.21-0.31-0.44-0.42-0.7c-0.06-0.18-0.09-0.28-0.09-0.28l-7.32-25.64l-32.24-113l-31.83-111.54
					c-1.21-4.27,0.58-8.68,4.12-10.97c0.62-0.4,1.29-0.73,2.02-0.98c0.2-0.08,0.41-0.15,0.63-0.21l10.65-3.04l10.64-3.04
					c1.18-0.34,2.37-0.44,3.52-0.34c0.84,0.07,1.67,0.25,2.45,0.53c2.9,1.02,5.28,3.38,6.19,6.57l2.31,8.08l0.17,0.61l4.27,14.96
					l0.17,0.61l25.05,87.81l32.28,113.12l7.13,25C1984.82,1798.51,1984.84,1798.88,1984.8,1799.25z"/>
				<path class="st7" d="M1908.17,1562.76l2.02,7.1c0.67,2.34,3.11,3.7,5.45,3.03l14.59-4.16c2.34-0.67,4.78,0.69,5.45,3.03
					l24.86,87.13c0.67,2.34,3.11,3.7,5.45,3.03l5.52-1.57c2.34-0.67,3.7-3.11,3.03-5.45l-29.3-102.7c-0.67-2.34-3.11-3.7-5.45-3.03
					l-28.58,8.16C1908.86,1557.98,1907.5,1560.42,1908.17,1562.76z"/>
				<path class="st6" d="M1984.71,1798.15c0.1,0.36,0.13,0.73,0.08,1.1l-4.93,40.03l-0.75,6.14c-0.3,2.43-3.38,3.31-4.92,1.4
					l-0.05-0.06l-3.66-4.54l-25.49-31.63c-0.17-0.21-0.32-0.45-0.42-0.7c-0.06-0.18-0.09-0.28-0.09-0.28s3.88,1.84,14.55-0.93
					C1965.18,1807.1,1973.55,1804,1984.71,1798.15z"/>
				<path class="st13" d="M1979.87,1839.29l-0.75,6.14c-0.3,2.43-3.38,3.31-4.92,1.4l-0.05-0.06l-3.66-4.54
					c0.55-0.04,1.13-0.12,1.76-0.23C1974.32,1841.63,1976.84,1840.81,1979.87,1839.29z"/>
				
					<rect x="1878.98" y="1560.38" transform="matrix(0.9616 -0.2744 0.2744 0.9616 -357.2929 582.5947)" class="st7" width="49.81" height="16.19"/>
				<path class="st7" d="M1977.58,1773.15c-2.39,1.82-8.64,5.97-19.17,9c-1.12,0.32-2.3,0.64-3.53,0.93c-4.16,1-12.21,2.2-17.7,0.9
					l-32.24-113c1.84,0.25,6.27,0.63,12.36-0.33c2.59-0.41,5.48-1.06,8.71-2.07c5.41-1.68,11.78-4.35,19.29-8.55L1977.58,1773.15z"
					/>
				<path class="st8" d="M1977.13,1847.75c-0.26,0.07-0.53,0.11-0.8,0.11c-0.1,0-0.19,0-0.29-0.02c-0.08,0-0.16-0.02-0.24-0.03
					c-0.06-0.01-0.11-0.02-0.17-0.04c-0.01,0-0.02-0.01-0.03-0.01c-0.04-0.01-0.07-0.02-0.11-0.03c-0.2-0.06-0.39-0.15-0.57-0.26
					c-0.06-0.04-0.13-0.08-0.19-0.13c-0.02-0.02-0.04-0.03-0.06-0.05c-0.16-0.12-0.32-0.28-0.47-0.46l-0.04-0.06l-3.66-4.53
					l-25.49-31.64c-0.17-0.21-0.31-0.44-0.42-0.7c-0.06-0.18-0.09-0.28-0.09-0.28l-7.32-25.64l-32.24-113l-31.83-111.54
					c-1.21-4.27,0.58-8.68,4.12-10.97l-1.8-6.32c-0.5-1.74,0.51-3.56,2.25-4.05l10.26-2.93l0.17,0.61l2.42,8.46l2.03,7.11
					l3.15,11.04l4.44,15.57l25.86,90.62l32.4,113.57l7.02,24.58l9.84,34.49L1977.13,1847.75z"/>
			</g>
			<g>
				<path class="st7" d="M208.85,282.63l-7.93,5.47c-1.49,1.03-3.53,0.66-4.56-0.83l-12.45-18.06c-1.03-1.49-0.65-3.54,0.84-4.56
					l7.93-5.47c1.49-1.03,3.53-0.65,4.56,0.84l12.45,18.06C210.72,279.57,210.34,281.61,208.85,282.63z"/>
				<path class="st4" d="M199.3,296.95l-214.2,147.67c-0.31,0.21-0.65,0.36-1.02,0.43l-39.51,8.14l-6.06,1.25
					c-1.2,0.25-2.25-0.28-2.84-1.14c-0.6-0.85-0.72-2.03-0.06-3.07l0.04-0.06l3.13-4.91l21.82-34.27c0.15-0.23,0.32-0.44,0.53-0.62
					c0.16-0.11,0.24-0.18,0.24-0.18l214.2-147.67c3.65-2.52,8.4-2.23,11.71,0.39c0.74,0.59,1.41,1.3,1.98,2.13l12.57,18.23
					c0.7,1.01,1.18,2.1,1.45,3.23C204.22,290.34,202.76,294.56,199.3,296.95z"/>
				<path class="st7" d="M183.63,296.79l-6.08,4.19c-2,1.38-2.51,4.13-1.13,6.13l8.61,12.49c1.38,2,0.88,4.75-1.13,6.13
					l-74.59,51.42c-2,1.38-2.51,4.13-1.13,6.13l3.26,4.73c1.38,2,4.13,2.51,6.13,1.13l87.93-60.62c2-1.38,2.51-4.13,1.13-6.13
					l-16.87-24.47C188.38,295.91,185.63,295.41,183.63,296.79z"/>
				<path class="st6" d="M-14.91,444.62c-0.31,0.21-0.65,0.36-1.02,0.43l-39.51,8.14l-6.06,1.25c-2.4,0.49-4.22-2.14-2.9-4.21
					l0.04-0.06l3.13-4.91l21.82-34.27c0.15-0.23,0.32-0.44,0.53-0.62c0.16-0.11,0.24-0.18,0.24-0.18s-0.5,4.26,5.53,13.49
					C-29.64,428.97-24.02,435.91-14.91,444.62z"/>
				<path class="st13" d="M-55.43,453.19l-6.06,1.25c-2.4,0.49-4.22-2.14-2.9-4.21l0.04-0.06l3.13-4.91
					c0.21,0.51,0.47,1.03,0.78,1.59C-59.43,448.68-57.85,450.8-55.43,453.19z"/>
				
					<rect x="168.01" y="267.48" transform="matrix(0.8233 -0.5676 0.5676 0.8233 -134.8388 151.6186)" class="st7" width="16.19" height="49.81"/>
				<path class="st7" d="M104.37,362.39L7.72,429.02c0,0-8.24-2.72-17.16-16.93c-2.42-3.85-6.45-11.77-6.57-17.5l96.65-66.63
					c0,0,0.61,5.25,4.43,12.55C88.42,346.94,94.26,354.95,104.37,362.39z"/>
				<path class="st8" d="M203.29,268.8L-64.33,453.3c-0.6-0.85-0.72-2.03-0.06-3.07l0.04-0.06l3.13-4.91l21.82-34.27
					c0.15-0.23,0.32-0.44,0.53-0.62c0.16-0.11,0.24-0.18,0.24-0.18l214.2-147.67c3.65-2.52,8.4-2.23,11.71,0.39l5.41-3.73
					c1.49-1.03,3.53-0.65,4.56,0.84L203.29,268.8z"/>
			</g>
			<g>
				<path class="st11" d="M-62.15,1292.12l8.33-4.83c1.57-0.91,3.57-0.38,4.48,1.19l11.01,18.97c0.91,1.57,0.38,3.58-1.19,4.49
					l-8.33,4.83c-1.56,0.91-3.57,0.37-4.48-1.19l-11.01-18.97C-64.25,1295.03-63.71,1293.02-62.15,1292.12z"/>
				<path class="st4" d="M-51.51,1278.59l225.04-130.56c0.32-0.19,0.68-0.3,1.05-0.35l40.02-5.04l6.14-0.78
					c1.22-0.16,2.22,0.46,2.74,1.36c0.53,0.9,0.56,2.08-0.18,3.06l-0.04,0.06l-3.5,4.66l-24.42,32.47
					c-0.16,0.22-0.36,0.42-0.58,0.58c-0.16,0.1-0.25,0.16-0.25,0.16l-225.04,130.56c-3.84,2.23-8.55,1.56-11.64-1.3
					c-0.69-0.65-1.3-1.41-1.81-2.27l-11.11-19.15c-0.62-1.06-1.01-2.19-1.19-3.33C-56.93,1284.79-55.15,1280.7-51.51,1278.59z"/>
				<path class="st11" d="M-35.9,1279.96l6.38-3.7c2.11-1.22,2.82-3.92,1.6-6.02l-7.61-13.12c-1.22-2.11-0.5-4.8,1.6-6.02
					l78.37-45.47c2.11-1.22,2.82-3.92,1.6-6.02l-2.88-4.96c-1.22-2.11-3.92-2.82-6.02-1.6l-92.38,53.59
					c-2.11,1.22-2.82,3.92-1.6,6.02l14.92,25.71C-40.7,1280.47-38,1281.19-35.9,1279.96z"/>
				<path class="st6" d="M173.53,1148.03c0.32-0.19,0.68-0.3,1.05-0.35l40.02-5.04l6.14-0.78c2.43-0.3,4.04,2.47,2.57,4.42
					l-0.04,0.06l-3.5,4.66l-24.42,32.47c-0.16,0.22-0.36,0.42-0.58,0.58c-0.16,0.1-0.25,0.16-0.25,0.16s0.83-4.21-4.47-13.88
					C187.01,1164.77,181.94,1157.42,173.53,1148.03z"/>
				<path class="st13" d="M214.6,1142.64l6.14-0.78c2.43-0.3,4.04,2.47,2.57,4.42l-0.04,0.06l-3.5,4.66
					c-0.17-0.52-0.39-1.07-0.66-1.65C218.23,1147.44,216.82,1145.21,214.6,1142.64z"/>
				
					<rect x="-36.84" y="1260.04" transform="matrix(0.865 -0.5018 0.5018 0.865 -648.6887 159.0769)" class="st11" width="16.19" height="49.81"/>
				<path class="st7" d="M50.27,1219.32l101.54-58.91c0,0,8,3.36,15.8,18.21c2.11,4.02,5.52,12.24,5.19,17.96L71.26,1255.5
					c0,0-0.2-5.28-3.44-12.86C64.97,1235.97,59.76,1227.53,50.27,1219.32z"/>
				<path class="st8" d="M-57.68,1306.34l281.17-163.12c0.53,0.9,0.56,2.08-0.18,3.06l-0.04,0.06l-3.5,4.66l-24.42,32.47
					c-0.16,0.22-0.36,0.42-0.58,0.58c-0.16,0.1-0.25,0.16-0.25,0.16l-225.04,130.56c-3.84,2.23-8.55,1.56-11.64-1.3l-5.69,3.3
					c-1.56,0.91-3.57,0.37-4.48-1.19L-57.68,1306.34z"/>
			</g>
			<g>
				<path class="st14" d="M2304.7,1601.81l93.06,201.48c5.62,12.17,0.31,26.59-11.86,32.21l-103.36,47.74
					c-0.57,0.26-1.15,0.5-1.73,0.72c-11.78,4.39-25.13-0.97-30.49-12.57l-93.06-201.48c-5.36-11.6-0.79-25.25,10.19-31.37
					c0.54-0.3,1.09-0.59,1.66-0.85l103.36-47.74C2284.66,1584.32,2299.08,1589.64,2304.7,1601.81z"/>
				<path class="st15" d="M2167.46,1638.54l113.35,245.43c-11.78,4.39-25.13-0.97-30.49-12.57l-93.06-201.48
					C2151.91,1658.3,2156.48,1644.65,2167.46,1638.54z"/>
				
					<rect x="2206.71" y="1676.95" transform="matrix(0.9078 -0.4193 0.4193 0.9078 -526.7582 1121.4178)" class="st4" width="162.4" height="164.33"/>
				<polygon class="st7" points="2336.74,1666.21 2340.08,1678.41 2192.64,1746.51 2187.42,1735.18 				"/>
				<polygon class="st7" points="2385.45,1771.68 2396.08,1799.66 2248.64,1867.75 2235.72,1839.77 				"/>
				
					<rect x="2213.16" y="1706.3" transform="matrix(0.9078 -0.4193 0.4193 0.9078 -544.9205 1097.4771)" class="st8" width="22.4" height="164.33"/>
			</g>
			<g>
				<path class="st14" d="M276.95,1018.3l-287.99,72.5c-17.4,4.38-35.05-6.17-39.42-23.57l-37.19-147.74
					c-0.21-0.82-0.38-1.63-0.51-2.45c-2.86-16.58,7.5-32.8,24.08-36.98l287.99-72.5c16.58-4.17,33.4,5.21,38.73,21.17
					c0.27,0.78,0.5,1.58,0.71,2.4l37.19,147.74C304.9,996.27,294.34,1013.92,276.95,1018.3z"/>
				<path class="st15" d="M262.62,828.73l-350.79,88.31c-2.86-16.58,7.5-32.8,24.08-36.98l287.99-72.5
					C240.48,803.39,257.29,812.78,262.62,828.73z"/>
				
					<rect x="-35.7" y="848.63" transform="matrix(0.9697 -0.2441 0.2441 0.9697 -231.4521 47.0894)" class="st4" width="219.89" height="217.31"/>
				
					<rect x="140.66" y="829.65" transform="matrix(0.9697 -0.2441 0.2441 0.9697 -224.5365 64.9226)" class="st7" width="17.98" height="217.31"/>
				
					<rect x="-33" y="870.43" transform="matrix(0.9697 -0.2441 0.2441 0.9697 -239.3974 26.6024)" class="st7" width="41.24" height="217.31"/>
				
					<rect x="-58.57" y="851.46" transform="matrix(0.9697 -0.2441 0.2441 0.9697 -209.9698 38.7589)" class="st8" width="219.89" height="29.98"/>
			</g>
			<g>
				<path class="st5" d="M-11.59,761.65l-66.52-185.44c-3.99-11.12,1.79-23.37,12.91-27.36l259.34-93.02
					c11.12-3.99,23.37,1.79,27.36,12.91l66.52,185.44c3.99,11.12-1.79,23.37-12.91,27.36L15.77,774.57
					C4.65,778.56-7.6,772.77-11.59,761.65z"/>
				<path class="st16" d="M253.8,662.25l-50.52,18.12c-4,1.44-8.41-0.65-9.85-4.65L134.6,511.7c-1.44-4,0.65-8.41,4.65-9.85
					l50.52-18.12c4-1.44,8.41,0.65,9.85,4.65l58.83,164.02C259.89,656.4,257.8,660.82,253.8,662.25z"/>
				<path class="st6" d="M253.8,662.25l-45.83,16.44L150.2,517.64c-1.44-4,0.64-8.41,4.65-9.85l45.84-16.44l57.77,161.05
					C259.89,656.4,257.8,660.82,253.8,662.25z"/>
				<path class="st17" d="M122.61,566.81l-36.58,13.12c-1.86,0.67-3.84,0.43-5.43-0.49c-1.29-0.74-2.33-1.92-2.87-3.43l-14.36-40.04
					c-1.21-3.37,0.55-7.09,3.92-8.3l36.58-13.12c3.37-1.21,7.09,0.55,8.3,3.92l14.36,40.04
					C127.74,561.88,125.98,565.6,122.61,566.81z"/>
				<path class="st17" d="M145.25,629.93l-36.58,13.12c-1.86,0.67-3.83,0.44-5.43-0.48c-1.29-0.74-2.33-1.93-2.88-3.44L86.01,599.1
					c-1.21-3.38,0.54-7.1,3.92-8.31l36.58-13.12c3.37-1.21,7.09,0.55,8.31,3.93l14.36,40.04
					C150.38,625.01,148.62,628.72,145.25,629.93z"/>
				<path class="st17" d="M167.9,693.07l-36.58,13.12c-3.37,1.21-7.09-0.55-8.3-3.92l-14.36-40.04c-1.21-3.37,0.55-7.09,3.92-8.3
					l36.58-13.12c3.37-1.21,7.09,0.55,8.3,3.92l14.36,40.04C173.02,688.14,171.27,691.86,167.9,693.07z"/>
				<path class="st17" d="M66.18,587.35L29.6,600.47c-1.86,0.67-3.83,0.44-5.43-0.48c-1.29-0.74-2.33-1.93-2.88-3.44L6.94,556.51
					c-1.21-3.38,0.55-7.09,3.92-8.3l36.58-13.12c3.37-1.21,7.09,0.54,8.3,3.92l14.36,40.04C71.31,582.42,69.55,586.14,66.18,587.35z
					"/>
				<path class="st17" d="M88.82,650.48L52.24,663.6c-1.86,0.67-3.83,0.44-5.43-0.48c-1.29-0.74-2.33-1.93-2.88-3.44l-14.36-40.04
					c-1.21-3.37,0.55-7.09,3.92-8.3l36.58-13.12c3.37-1.21,7.09,0.55,8.3,3.92l14.36,40.04C93.95,645.55,92.2,649.27,88.82,650.48z"
					/>
				<path class="st18" d="M9.65,607.62l-36.58,13.12c-3.37,1.21-7.09-0.54-8.3-3.92l-14.36-40.04c-1.21-3.38,0.55-7.09,3.92-8.3
					l36.58-13.12c3.37-1.21,7.09,0.54,8.3,3.92l14.36,40.04C14.78,602.7,13.03,606.41,9.65,607.62z"/>
				<path class="st17" d="M32.3,670.75l-36.58,13.12c-3.37,1.21-7.09-0.55-8.3-3.92l-14.36-40.04c-1.21-3.37,0.55-7.09,3.92-8.3
					l36.58-13.12c3.37-1.21,7.09,0.55,8.3,3.92l14.36,40.04C37.43,665.82,35.67,669.54,32.3,670.75z"/>
				<path class="st17" d="M108.6,714.63l-87.36,31.34c-4.96,1.78-10.42-0.8-12.2-5.75l-12.31-34.31c-1.78-4.96,0.8-10.42,5.76-12.2
					l87.36-31.34c4.56-1.64,9.55,0.41,11.7,4.61c0.19,0.36,0.36,0.75,0.5,1.15l12.31,34.31
					C116.14,707.39,113.56,712.85,108.6,714.63z"/>
				<path class="st4" d="M122.61,566.81L89.1,578.83l-13.76-38.35c-1.21-3.37,0.55-7.09,3.92-8.3l33.51-12.02l13.76,38.35
					C127.74,561.88,125.98,565.6,122.61,566.81z"/>
				<path class="st4" d="M145.25,629.93l-33.51,12.02l-13.75-38.35c-1.21-3.38,0.55-7.09,3.92-8.3l33.51-12.02l13.75,38.35
					C150.38,625.01,148.62,628.72,145.25,629.93z"/>
				<path class="st4" d="M167.9,693.07l-33.51,12.02l-13.76-38.35c-1.21-3.37,0.55-7.09,3.92-8.3l33.51-12.02l13.76,38.35
					C173.02,688.14,171.27,691.86,167.9,693.07z"/>
				<path class="st14" d="M77.73,576.01l-12.89-35.93c1.29,0.74,2.33,1.93,2.88,3.44l12.89,35.92
					C79.31,578.7,78.27,577.52,77.73,576.01z"/>
				<path class="st4" d="M66.18,587.35l-33.51,12.02l-13.75-38.35c-1.21-3.38,0.55-7.09,3.92-8.3l33.51-12.02l13.75,38.35
					C71.31,582.42,69.55,586.14,66.18,587.35z"/>
				<path class="st14" d="M100.37,639.13l-12.89-35.93c1.29,0.74,2.33,1.92,2.87,3.43l12.89,35.93
					C101.95,641.83,100.91,640.64,100.37,639.13z"/>
				<path class="st4" d="M88.82,650.48L55.31,662.5l-13.76-38.35c-1.21-3.37,0.55-7.09,3.92-8.3l33.51-12.02l13.76,38.35
					C93.95,645.55,92.2,649.27,88.82,650.48z"/>
				<path class="st17" d="M21.3,596.55L8.31,560.35c1.29,0.74,2.33,1.93,2.88,3.44l12.98,36.19
					C22.88,599.25,21.84,598.06,21.3,596.55z"/>
				<path class="st4" d="M9.65,607.62l-33.51,12.02l-13.75-38.35c-1.21-3.38,0.55-7.09,3.92-8.3l33.51-12.02l13.75,38.35
					C14.78,602.7,13.03,606.41,9.65,607.62z"/>
				<path class="st17" d="M43.94,659.68l-12.98-36.19c1.29,0.74,2.33,1.92,2.87,3.43l12.99,36.2
					C45.52,662.38,44.48,661.19,43.94,659.68z"/>
				<path class="st4" d="M32.3,670.75l-33.51,12.02l-13.76-38.35c-1.21-3.37,0.55-7.09,3.92-8.3l33.51-12.02l13.76,38.35
					C37.43,665.82,35.67,669.54,32.3,670.75z"/>
				<path class="st4" d="M104.93,715.95l-87.09,31.24c-0.19-0.36-0.36-0.75-0.5-1.15L5.04,711.73c-1.78-4.95,0.8-10.42,5.76-12.2
					l87.09-31.24c0.19,0.36,0.36,0.75,0.5,1.15l12.31,34.31C112.47,708.71,109.89,714.17,104.93,715.95z"/>
			</g>
			<g>
				<path class="st17" d="M2102.3,1847.49l-64.32-187.67l5.05-41.62l29.51,29.78l64.32,187.68c1.99,5.81-1.1,12.13-6.91,14.12
					l-13.54,4.64C2110.61,1856.39,2104.29,1853.29,2102.3,1847.49z"/>
				<polygon class="st12" points="2038.12,1660.22 2037.98,1659.81 2041.98,1626.8 2043.03,1618.19 2049.13,1624.35 
					2072.54,1647.97 2072.69,1648.41 2069.09,1655.22 2061.43,1651.77 2056.67,1659.48 2049.48,1655.87 2044.9,1663.51 				"/>
				<path class="st14" d="M2102.3,1847.49l-4.2-12.26l34.56-11.84l4.2,12.26c1.99,5.81-1.1,12.13-6.91,14.12l-13.54,4.64
					C2110.61,1856.39,2104.29,1853.29,2102.3,1847.49z"/>
				
					<rect x="2098.2" y="1829.12" transform="matrix(0.946 -0.3242 0.3242 0.946 -479.781 785.1439)" class="st19" width="36.53" height="6.72"/>
				<g>
					
						<rect x="2097.13" y="1650.49" transform="matrix(0.946 -0.3242 0.3242 0.946 -450.3242 773.9205)" class="st19" width="0.85" height="176"/>
				</g>
				<g>
					
						<rect x="2084.67" y="1654.76" transform="matrix(0.946 -0.3241 0.3241 0.946 -452.2739 769.8279)" class="st19" width="0.85" height="176"/>
				</g>
				<g>
					
						<rect x="2072.97" y="1658.77" transform="matrix(0.946 -0.3242 0.3242 0.946 -454.3131 766.5356)" class="st19" width="0.85" height="176"/>
				</g>
				<polygon class="st20" points="2041.98,1626.8 2043.03,1618.19 2049.13,1624.35 				"/>
				<path class="st8" d="M2123.18,1852.08l-80.16-233.89l29.51,29.78l64.32,187.68c1.99,5.81-1.1,12.13-6.91,14.12L2123.18,1852.08z
					"/>
			</g>
			<g>
				<path class="st17" d="M874.64,1923.69l40.73-226.19l28.57-39.27l13.08,46.77l-40.73,226.19c-1.26,7-7.95,11.65-14.95,10.39
					l-16.32-2.94C878.03,1937.38,873.38,1930.68,874.64,1923.69z"/>
				<polygon class="st12" points="915.28,1697.99 915.37,1697.49 938.03,1666.34 943.94,1658.22 946.65,1667.89 957.02,1704.99 
					956.93,1705.52 949.43,1710.39 943.63,1702.58 934.47,1707.7 929.22,1699.99 920.29,1705.14 				"/>
				<path class="st14" d="M874.64,1923.69l2.66-14.78l41.65,7.5l-2.66,14.78c-1.26,7-7.95,11.65-14.95,10.39l-16.32-2.94
					C878.03,1937.38,873.38,1930.68,874.64,1923.69z"/>
				
					<rect x="893.55" y="1895.33" transform="matrix(0.1772 -0.9842 0.9842 0.1772 -1147.7485 2460.1174)" class="st19" width="7.79" height="42.32"/>
				<g>
					
						<rect x="829.35" y="1810.21" transform="matrix(0.1772 -0.9842 0.9842 0.1772 -1015.7933 2406.3669)" class="st19" width="203.89" height="0.98"/>
				</g>
				<g>
					
						<rect x="814.33" y="1807.51" transform="matrix(0.1772 -0.9842 0.9842 0.1772 -1025.491 2389.3574)" class="st19" width="203.89" height="0.98"/>
				</g>
				<g>
					
						<rect x="800.24" y="1804.97" transform="matrix(0.1772 -0.9842 0.9842 0.1772 -1034.5901 2373.3979)" class="st19" width="203.89" height="0.98"/>
				</g>
				<polygon class="st20" points="938.03,1666.34 943.94,1658.22 946.65,1667.89 				"/>
				<path class="st8" d="M893.19,1940.11l50.76-281.89l13.08,46.77l-40.73,226.19c-1.26,7-7.95,11.65-14.95,10.39L893.19,1940.11z"
					/>
			</g>
			<g>
				<path class="st5" d="M961.97,1936.11l418.54-234.14l-332.71-98.51l-101,341.14L961.97,1936.11z M1232.36,1719.96l-187.79,105.05
					l43.73-147.7L1232.36,1719.96z"/>
				<polygon class="st8" points="1088.17,1677.75 1086.79,1676.86 1089.43,1667.95 1246.64,1714.5 1232.36,1719.96 1088.3,1677.3 
									"/>
				<polygon class="st8" points="946.79,1944.61 1047.8,1603.47 1059.44,1606.92 961.97,1936.11 				"/>
				<g>
					
						<rect x="1347.99" y="1698.97" transform="matrix(-0.2839 0.9589 -0.9589 -0.2839 3368.3823 884.72)" class="st4" width="11.67" height="2.38"/>
					<g>
						
							<rect x="1346.1" y="1695.54" transform="matrix(-0.2839 0.9589 -0.9589 -0.2839 3358.5798 883.785)" class="st4" width="6.34" height="0.98"/>
						
							<rect x="1340.94" y="1694.02" transform="matrix(-0.2839 0.9589 -0.9589 -0.2839 3350.4758 886.7312)" class="st4" width="6.34" height="0.98"/>
						
							<rect x="1335.78" y="1692.49" transform="matrix(-0.2839 0.9589 -0.9589 -0.2839 3342.4038 889.756)" class="st4" width="6.34" height="0.98"/>
						
							<rect x="1330.62" y="1690.96" transform="matrix(-0.2839 0.9589 -0.9589 -0.2839 3334.3157 892.7416)" class="st4" width="6.34" height="0.98"/>
						
							<rect x="1325.47" y="1689.43" transform="matrix(-0.2839 0.9589 -0.9589 -0.2839 3326.2122 895.6879)" class="st4" width="6.34" height="0.98"/>
					</g>
				</g>
				<g>
					
						<rect x="1316.31" y="1689.59" transform="matrix(-0.2839 0.9589 -0.9589 -0.2839 3318.71 903.0499)" class="st4" width="11.67" height="2.38"/>
					<g>
						
							<rect x="1314.42" y="1686.16" transform="matrix(-0.2839 0.9589 -0.9589 -0.2839 3308.9094 902.1197)" class="st4" width="6.34" height="0.98"/>
						
							<rect x="1309.26" y="1684.64" transform="matrix(-0.2839 0.9589 -0.9589 -0.2839 3300.8098 905.0752)" class="st4" width="6.34" height="0.98"/>
						
							<rect x="1304.1" y="1683.11" transform="matrix(-0.2839 0.9589 -0.9589 -0.2839 3292.7334 908.0908)" class="st4" width="6.34" height="0.98"/>
						
							<rect x="1298.94" y="1681.58" transform="matrix(-0.2839 0.9589 -0.9589 -0.2839 3284.6453 911.0763)" class="st4" width="6.34" height="0.98"/>
						
							<rect x="1293.78" y="1680.05" transform="matrix(-0.2839 0.9589 -0.9589 -0.2839 3276.5457 914.0319)" class="st4" width="6.34" height="0.98"/>
					</g>
				</g>
				<g>
					
						<rect x="1284.63" y="1680.21" transform="matrix(-0.2839 0.9589 -0.9589 -0.2839 3269.0417 921.3894)" class="st4" width="11.67" height="2.38"/>
					<g>
						
							<rect x="1282.74" y="1676.78" transform="matrix(-0.2839 0.9589 -0.9589 -0.2839 3259.2393 920.4545)" class="st4" width="6.34" height="0.98"/>
						
							<rect x="1277.58" y="1675.26" transform="matrix(-0.2839 0.9589 -0.9589 -0.2839 3251.1365 923.4013)" class="st4" width="6.34" height="0.98"/>
						
							<rect x="1272.42" y="1673.73" transform="matrix(-0.2839 0.9589 -0.9589 -0.2839 3243.0632 926.4255)" class="st4" width="6.34" height="0.98"/>
						
							<rect x="1267.26" y="1672.2" transform="matrix(-0.2839 0.9589 -0.9589 -0.2839 3234.9751 929.4111)" class="st4" width="6.34" height="0.98"/>
						
							<rect x="1262.1" y="1670.67" transform="matrix(-0.2839 0.9589 -0.9589 -0.2839 3226.8726 932.3581)" class="st4" width="6.34" height="0.98"/>
					</g>
				</g>
				<g>
					
						<rect x="1252.94" y="1670.83" transform="matrix(-0.2839 0.9589 -0.9589 -0.2839 3219.3696 939.7194)" class="st4" width="11.67" height="2.38"/>
					<g>
						
							<rect x="1251.06" y="1667.4" transform="matrix(-0.2839 0.9589 -0.9589 -0.2839 3209.5688 938.7891)" class="st4" width="6.34" height="0.98"/>
						
							<rect x="1245.9" y="1665.88" transform="matrix(-0.2839 0.9589 -0.9589 -0.2839 3201.47 941.7451)" class="st4" width="6.34" height="0.98"/>
						
							<rect x="1240.74" y="1664.35" transform="matrix(-0.2839 0.9589 -0.9589 -0.2839 3193.3931 944.7603)" class="st4" width="6.34" height="0.98"/>
						
							<rect x="1235.58" y="1662.82" transform="matrix(-0.2839 0.9589 -0.9589 -0.2839 3185.3047 947.7457)" class="st4" width="6.34" height="0.98"/>
						
							<rect x="1230.42" y="1661.29" transform="matrix(-0.2839 0.9589 -0.9589 -0.2839 3177.2061 950.7019)" class="st4" width="6.34" height="0.98"/>
					</g>
				</g>
				<g>
					
						<rect x="1221.26" y="1661.45" transform="matrix(-0.2839 0.9589 -0.9589 -0.2839 3169.7009 958.0588)" class="st4" width="11.67" height="2.38"/>
					<g>
						
							<rect x="1219.37" y="1658.02" transform="matrix(-0.2839 0.9589 -0.9589 -0.2839 3159.8987 957.1239)" class="st4" width="6.34" height="0.98"/>
						
							<rect x="1214.22" y="1656.5" transform="matrix(-0.2839 0.9589 -0.9589 -0.2839 3151.8 960.0801)" class="st4" width="6.34" height="0.98"/>
						
							<rect x="1209.06" y="1654.97" transform="matrix(-0.2839 0.9589 -0.9589 -0.2839 3143.7227 963.0949)" class="st4" width="6.34" height="0.98"/>
						
							<rect x="1203.9" y="1653.44" transform="matrix(-0.2839 0.9589 -0.9589 -0.2839 3135.6345 966.0805)" class="st4" width="6.34" height="0.98"/>
						
							<rect x="1198.74" y="1651.91" transform="matrix(-0.2839 0.9589 -0.9589 -0.2839 3127.5332 969.0283)" class="st4" width="6.34" height="0.98"/>
					</g>
				</g>
				<g>
					
						<rect x="1189.58" y="1652.07" transform="matrix(-0.2839 0.9589 -0.9589 -0.2839 3120.0291 976.3889)" class="st4" width="11.67" height="2.38"/>
					<g>
						
							<rect x="1187.69" y="1648.64" transform="matrix(-0.2839 0.9589 -0.9589 -0.2839 3110.2283 975.4586)" class="st4" width="6.34" height="0.98"/>
						
							<rect x="1182.53" y="1647.12" transform="matrix(-0.2839 0.9589 -0.9589 -0.2839 3102.1304 978.4151)" class="st4" width="6.34" height="0.98"/>
						
							<rect x="1177.38" y="1645.59" transform="matrix(-0.2839 0.9589 -0.9589 -0.2839 3094.0522 981.4297)" class="st4" width="6.34" height="0.98"/>
						
							<rect x="1172.22" y="1644.06" transform="matrix(-0.2839 0.9589 -0.9589 -0.2839 3085.9641 984.4152)" class="st4" width="6.34" height="0.98"/>
						
							<rect x="1167.06" y="1642.53" transform="matrix(-0.2839 0.9589 -0.9589 -0.2839 3077.8662 987.3718)" class="st4" width="6.34" height="0.98"/>
					</g>
				</g>
				<g>
					
						<rect x="1157.9" y="1642.69" transform="matrix(-0.2839 0.9589 -0.9589 -0.2839 3070.355 994.7126)" class="st4" width="11.67" height="2.38"/>
					<g>
						
							<rect x="1156.01" y="1639.26" transform="matrix(-0.2839 0.9589 -0.9589 -0.2839 3060.5581 993.7933)" class="st4" width="6.34" height="0.98"/>
						
							<rect x="1150.85" y="1637.73" transform="matrix(-0.2839 0.9589 -0.9589 -0.2839 3052.4702 996.7788)" class="st4" width="6.34" height="0.98"/>
						
							<rect x="1145.69" y="1636.21" transform="matrix(-0.2839 0.9589 -0.9589 -0.2839 3044.3723 999.7357)" class="st4" width="6.34" height="0.98"/>
						
							<rect x="1140.53" y="1634.68" transform="matrix(-0.2839 0.9589 -0.9589 -0.2839 3036.2939 1002.7499)" class="st4" width="6.34" height="0.98"/>
						
							<rect x="1135.38" y="1633.15" transform="matrix(-0.2839 0.9589 -0.9589 -0.2839 3028.2061 1005.7354)" class="st4" width="6.34" height="0.98"/>
					</g>
				</g>
				<g>
					
						<rect x="1126.22" y="1633.31" transform="matrix(-0.2839 0.9589 -0.9589 -0.2839 3020.6836 1013.0428)" class="st4" width="11.67" height="2.38"/>
					<g>
						
							<rect x="1124.33" y="1629.88" transform="matrix(-0.2839 0.9589 -0.9589 -0.2839 3010.885 1012.1196)" class="st4" width="6.34" height="0.98"/>
						
							<rect x="1119.17" y="1628.35" transform="matrix(-0.2839 0.9589 -0.9589 -0.2839 3002.7998 1015.1135)" class="st4" width="6.34" height="0.98"/>
						
							<rect x="1114.01" y="1626.83" transform="matrix(-0.2839 0.9589 -0.9589 -0.2839 2994.7026 1018.0707)" class="st4" width="6.34" height="0.98"/>
						
							<rect x="1108.85" y="1625.3" transform="matrix(-0.2839 0.9589 -0.9589 -0.2839 2986.6211 1021.0762)" class="st4" width="6.34" height="0.98"/>
						
							<rect x="1103.69" y="1623.77" transform="matrix(-0.2839 0.9589 -0.9589 -0.2839 2978.5356 1024.0701)" class="st4" width="6.34" height="0.98"/>
					</g>
				</g>
				<g>
					
						<rect x="1094.54" y="1623.93" transform="matrix(-0.2839 0.9589 -0.9589 -0.2839 2971.0149 1031.3822)" class="st4" width="11.67" height="2.38"/>
					<g>
						
							<rect x="1092.65" y="1620.5" transform="matrix(-0.2839 0.9589 -0.9589 -0.2839 2961.2175 1030.4628)" class="st4" width="6.34" height="0.98"/>
						
							<rect x="1087.49" y="1618.97" transform="matrix(-0.2839 0.9589 -0.9589 -0.2839 2953.1296 1033.4482)" class="st4" width="6.34" height="0.98"/>
						
							<rect x="1082.33" y="1617.45" transform="matrix(-0.2839 0.9589 -0.9589 -0.2839 2945.0327 1036.4056)" class="st4" width="6.34" height="0.98"/>
						
							<rect x="1077.17" y="1615.92" transform="matrix(-0.2839 0.9589 -0.9589 -0.2839 2936.9534 1039.4193)" class="st4" width="6.34" height="0.98"/>
						
							<rect x="1072.01" y="1614.39" transform="matrix(-0.2839 0.9589 -0.9589 -0.2839 2928.8655 1042.4049)" class="st4" width="6.34" height="0.98"/>
					</g>
				</g>
			</g>
			<g>
				<path class="st7" d="M1828.88,1819.66l-170.54,19.33c-14.36,1.63-27.31-8.69-28.94-23.05l-27.05-238.64
					c-1.63-14.36,8.69-27.31,23.05-28.94l170.54-19.33c14.36-1.63,27.31,8.69,28.94,23.05l27.05,238.64
					C1853.55,1805.08,1843.23,1818.04,1828.88,1819.66z"/>
				
					<rect x="1653.47" y="1554.81" transform="matrix(0.9936 -0.1126 0.1126 0.9936 -178.7404 204.726)" class="st8" width="138.64" height="259.4"/>
				
					<rect x="1653.77" y="1560.21" transform="matrix(0.9936 -0.1126 0.1126 0.9936 -179.6516 199.3919)" class="st10" width="42.69" height="259.4"/>
				
					<rect x="1653.88" y="1562.06" transform="matrix(0.9936 -0.1126 0.1126 0.9936 -179.9642 197.5628)" class="st16" width="9.79" height="259.4"/>
				
					<rect x="1711.01" y="1551.56" transform="matrix(0.9936 -0.1126 0.1126 0.9936 -178.1916 207.9343)" class="st10" width="80.91" height="259.4"/>
				
					<rect x="1711.23" y="1555.56" transform="matrix(0.9936 -0.1126 0.1126 0.9936 -178.8674 203.9805)" class="st16" width="9.79" height="259.4"/>
				<polygon class="st11" points="1773.37,1649.94 1750.25,1652.56 1740.96,1673.88 1754.79,1692.59 1777.9,1689.97 
					1787.19,1668.64 				"/>
				<polygon class="st12" points="1768.72,1660.6 1757.16,1661.91 1752.52,1672.57 1759.43,1681.93 1770.99,1680.62 
					1775.63,1669.95 				"/>
			</g>
			<g>
				<path class="st6" d="M819.47,1660.81L768.15,1800h-362.3c0,0,71.66-122.63,121.3-213.55
					C527.15,1586.45,741.34,1631.77,819.47,1660.81z"/>
				<polygon class="st4" points="778.77,1800 814.75,1703.04 819.47,1660.81 765.94,1800 				"/>
				<path class="st4" d="M552.15,1610.29L552.15,1610.29c-3.8-1.83-5.41-6.43-3.58-10.22l6.64-13.81c1.83-3.8,6.43-5.41,10.22-3.58
					l0,0c3.8,1.83,5.41,6.43,3.58,10.22l-6.64,13.81C560.54,1610.51,555.94,1612.12,552.15,1610.29z"/>
				<path class="st4" d="M606.02,1624.85L606.02,1624.85c-3.8-1.83-5.41-6.43-3.58-10.22l6.64-13.81c1.83-3.8,6.43-5.41,10.22-3.58
					l0,0c3.8,1.83,5.41,6.43,3.58,10.22l-6.64,13.81C614.42,1625.07,609.82,1626.68,606.02,1624.85z"/>
				<path class="st4" d="M659.89,1639.41L659.89,1639.41c-3.8-1.83-5.41-6.43-3.58-10.22l6.64-13.81c1.83-3.8,6.43-5.41,10.22-3.58
					h0c3.8,1.83,5.41,6.43,3.58,10.22l-6.64,13.81C668.29,1639.62,663.69,1641.24,659.89,1639.41z"/>
				<path class="st4" d="M713.76,1653.97L713.76,1653.97c-3.8-1.83-5.41-6.43-3.58-10.22l6.64-13.81c1.83-3.8,6.43-5.41,10.22-3.58
					l0,0c3.8,1.83,5.41,6.43,3.58,10.22l-6.64,13.81C722.16,1654.18,717.56,1655.79,713.76,1653.97z"/>
				<path class="st4" d="M767.64,1668.53L767.64,1668.53c-3.8-1.83-5.41-6.43-3.58-10.22l6.64-13.81c1.83-3.8,6.43-5.41,10.22-3.58
					l0,0c3.8,1.83,5.41,6.43,3.58,10.22l-6.64,13.81C776.03,1668.74,771.43,1670.35,767.64,1668.53z"/>
				<g>
					<g>
						
							<rect x="639.87" y="1560" transform="matrix(0.2428 -0.9701 0.9701 0.2428 -1141.6422 1890.8596)" class="st21" width="1" height="233.43"/>
					</g>
					<g>
						
							<rect x="623.43" y="1597.46" transform="matrix(0.2428 -0.9701 0.9701 0.2428 -1190.4402 1903.2758)" class="st21" width="1" height="233.43"/>
					</g>
					<g>
						
							<rect x="606.68" y="1642.03" transform="matrix(0.2428 -0.9701 0.9701 0.2428 -1246.3506 1920.7758)" class="st21" width="1" height="233.43"/>
					</g>
					<g>
						<polygon class="st21" points="607.94,1800 603.82,1800 477.39,1768.36 477.52,1767.87 477.64,1767.39 						"/>
					</g>
				</g>
			</g>
			<g>
				<path class="st6" d="M0.66,0.15v267.17c39.62-10.14,142.09-36.12,221.83-54.29c0,0,7.91-117.47,9.5-212.89H0.66z"/>
				<path class="st4" d="M206.36,182.49L206.36,182.49c0.72,4.15,4.71,6.95,8.86,6.23l15.09-2.63c4.15-0.72,6.95-4.71,6.23-8.86l0,0
					c-0.72-4.15-4.71-6.95-8.86-6.23l-15.09,2.63C208.44,174.36,205.63,178.34,206.36,182.49z"/>
				<path class="st4" d="M207.02,126.69L207.02,126.69c0.72,4.15,4.71,6.95,8.86,6.23l15.09-2.63c4.15-0.72,6.95-4.71,6.23-8.86l0,0
					c-0.72-4.15-4.71-6.95-8.86-6.23l-15.09,2.63C209.1,118.56,206.29,122.54,207.02,126.69z"/>
				<path class="st4" d="M207.68,70.89L207.68,70.89c0.72,4.15,4.71,6.95,8.86,6.23l15.09-2.63c4.15-0.72,6.95-4.71,6.23-8.86l0,0
					c-0.72-4.15-4.71-6.95-8.86-6.23l-15.09,2.63C209.76,62.75,206.96,66.74,207.68,70.89z"/>
				<path class="st4" d="M208.34,15.09L208.34,15.09c0.72,4.15,4.71,6.95,8.86,6.23l15.09-2.63c4.15-0.72,6.95-4.71,6.23-8.86v0
					c-0.72-4.15-4.71-6.95-8.86-6.23l-15.09,2.63C210.42,6.95,207.62,10.94,208.34,15.09z"/>
				<g>
					<g>
						
							<rect x="80.23" y="110.5" transform="matrix(0.0297 -0.9996 0.9996 0.0297 49.5709 273.0723)" class="st21" width="170.42" height="1"/>
					</g>
					<g>
						
							<rect x="39.7" y="116.13" transform="matrix(0.0297 -0.9996 0.9996 0.0297 4.6258 238.0176)" class="st21" width="170.42" height="1"/>
					</g>
					<g>
						
							<rect x="-7.74" y="120.1" transform="matrix(0.0297 -0.9996 0.9996 0.0297 -45.3817 194.4597)" class="st21" width="170.42" height="1"/>
					</g>
					<g>
						<polygon class="st21" points="41.12,34.71 39.99,38.67 33.91,211.39 34.41,211.39 34.91,211.41 						"/>
					</g>
				</g>
			</g>
			<g>
				<polygon class="st4" points="2403.77,131.47 2410.72,175.12 2451.99,159.31 2418.41,217.46 2370.2,189.63 				"/>
				<path class="st5" d="M1943.03,410.18l202.42-350.6c4.97-8.61,15.17-12.03,22.77-7.64l265.09,153.05
					c7.61,4.39,9.75,14.94,4.78,23.54l-202.42,350.6c-4.97,8.62-15.17,12.04-22.79,7.64L1947.8,433.73
					C1940.19,429.34,1938.05,418.79,1943.03,410.18z"/>
				<path class="st6" d="M2010.33,377.87l43.95-76.13c2.37-4.11,7.24-5.74,10.87-3.65l181.19,104.61c3.63,2.1,4.65,7.13,2.28,11.24
					l-43.95,76.13c-2.38,4.12-7.24,5.74-10.87,3.65l-181.19-104.61C2008.98,387.01,2007.95,381.99,2010.33,377.87z"/>
				<path class="st6" d="M2010.33,377.87l35.11-60.82l175.86,101.53c3.63,2.1,4.65,7.13,2.28,11.24l-35.11,60.82l-175.86-101.53
					C2008.98,387.01,2007.95,381.99,2010.33,377.87z"/>
				<path class="st4" d="M2187.57,572.16l220.42-381.78l25.31,14.62c7.61,4.39,9.75,14.94,4.78,23.54l-202.42,350.6
					c-4.97,8.62-15.17,12.04-22.79,7.64L2187.57,572.16z"/>
			</g>
			<g>
				<path class="st7" d="M968.4,32.76L968.4,32.76c30.58-5.61,59.92,14.63,65.54,45.21l26.6,144.95L952.1,243.25L925.49,98.3
					C917.58,67.72,937.82,38.37,968.4,32.76z"/>
				<path class="st8" d="M970.55,44.44L970.55,44.44c22.71-4.17,44.5,10.86,48.67,33.58l27.08,147.54l-82.25,15.1L936.97,93.11
					C932.8,70.4,947.84,48.61,970.55,44.44z"/>
				<polygon class="st9" points="986.14,296.76 946.83,82.6 1008.71,71.24 1041.38,249.24 1029.88,259.14 				"/>
				<polygon class="st10" points="1029.88,259.14 995.82,73.6 1008.71,71.24 1041.38,249.24 				"/>
				
					<ellipse transform="matrix(0.9998 -0.0184 0.0184 0.9998 -1.4518 18.0646)" class="st11" cx="978.49" cy="87.73" rx="34.57" ry="34.57"/>
				
					<ellipse transform="matrix(0.9995 -0.0312 0.0312 0.9995 -2.2612 30.5792)" class="st12" cx="978.49" cy="87.73" rx="21.55" ry="21.55"/>
			</g>
			<g>
				<path class="st7" d="M517.78,280.38l-2.64-9.26c-0.5-1.74,0.51-3.56,2.25-4.05l21.09-6.02c1.74-0.5,3.56,0.51,4.06,2.26
					l2.64,9.26c0.5,1.74-0.51,3.55-2.26,4.05l-21.09,6.02C520.09,283.13,518.28,282.12,517.78,280.38z"/>
				<path class="st4" d="M507.28,266.74L435.89,16.56c-0.1-0.36-0.13-0.73-0.08-1.1l4.93-40.03l0.75-6.14
					c0.15-1.22,0.99-2.04,1.99-2.33c1-0.29,2.16-0.03,2.93,0.92l0.05,0.06l3.65,4.54L475.59,4.1c0.17,0.21,0.32,0.45,0.42,0.7
					c0.06,0.18,0.09,0.28,0.09,0.28l71.39,250.19c1.22,4.27-0.58,8.68-4.12,10.97c-0.8,0.51-1.69,0.92-2.65,1.19l-21.29,6.08
					c-1.18,0.34-2.37,0.45-3.52,0.34C511.96,273.52,508.43,270.79,507.28,266.74z"/>
				<path class="st6" d="M435.89,16.56c-0.1-0.36-0.13-0.73-0.08-1.1l4.93-40.03l0.75-6.14c0.3-2.43,3.38-3.31,4.92-1.4l0.05,0.06
					l3.65,4.54L475.59,4.1c0.17,0.21,0.32,0.45,0.42,0.7c0.06,0.18,0.09,0.28,0.09,0.28s-3.88-1.84-14.55,0.93
					C455.43,7.6,447.05,10.71,435.89,16.56z"/>
				<path class="st13" d="M440.74-24.58l0.75-6.14c0.3-2.43,3.38-3.31,4.92-1.4l0.05,0.06l3.65,4.54c-0.55,0.04-1.13,0.12-1.76,0.23
					C446.29-26.92,443.77-26.1,440.74-24.58z"/>
				<path class="st7" d="M545.19,247.19l-4.44-15.57l-47.9,13.67l0.01,0.02l-2.39,0.68c-2.34,0.67-4.78-0.69-5.45-3.03l-24.86-87.13
					c-0.67-2.34-3.11-3.7-5.45-3.03l-5.52,1.57c-2.34,0.67-3.7,3.11-3.03,5.45l29.3,102.7c0.67,2.34,3.11,3.7,5.45,3.03l28.58-8.16
					c0.09-0.02,0.16-0.07,0.24-0.1L545.19,247.19z"/>
				<path class="st7" d="M475.64,156.12L443.43,43.24c0,0,5.22-6.94,21.53-10.85c4.42-1.06,13.22-2.35,18.69-0.63l32.21,112.88
					c0,0-5.17-1.11-13.31,0.18C495.38,145.95,485.93,148.93,475.64,156.12z"/>
				<path class="st8" d="M532.67,279.54L443.48-33.05c1-0.29,2.16-0.03,2.93,0.92l0.05,0.06l3.65,4.54L475.59,4.1
					c0.17,0.21,0.32,0.45,0.42,0.7c0.06,0.18,0.09,0.28,0.09,0.28l71.39,250.19c1.22,4.27-0.58,8.68-4.12,10.97l1.8,6.32
					c0.5,1.74-0.51,3.55-2.26,4.05L532.67,279.54z"/>
			</g>
			<g>
				<path class="st7" d="M2258.64,1517.51l7.93-5.47c1.49-1.03,3.53-0.66,4.56,0.83l12.45,18.06c1.03,1.49,0.65,3.54-0.84,4.56
					l-7.93,5.47c-1.49,1.03-3.53,0.65-4.56-0.84l-12.45-18.06C2256.77,1520.58,2257.15,1518.54,2258.64,1517.51z"/>
				<path class="st4" d="M2268.2,1503.2l214.2-147.67c0.31-0.21,0.65-0.36,1.02-0.43l39.51-8.14l6.06-1.25
					c1.2-0.25,2.25,0.28,2.84,1.14c0.6,0.85,0.72,2.03,0.06,3.07l-0.04,0.06l-3.13,4.91l-21.82,34.27
					c-0.15,0.23-0.32,0.44-0.53,0.62c-0.16,0.11-0.24,0.18-0.24,0.18l-214.2,147.67c-3.65,2.52-8.41,2.23-11.71-0.39
					c-0.74-0.59-1.41-1.3-1.98-2.13l-12.57-18.23c-0.7-1.01-1.18-2.1-1.45-3.23C2263.28,1509.8,2264.73,1505.59,2268.2,1503.2z"/>
				<path class="st7" d="M2283.87,1503.36l6.08-4.19c2-1.38,2.51-4.13,1.13-6.13l-8.61-12.49c-1.38-2-0.88-4.75,1.13-6.13
					l74.59-51.42c2-1.38,2.51-4.13,1.13-6.13l-3.26-4.73c-1.38-2-4.13-2.51-6.13-1.13l-87.93,60.62c-2,1.38-2.51,4.13-1.13,6.13
					l16.87,24.47C2279.12,1504.24,2281.86,1504.74,2283.87,1503.36z"/>
				<path class="st6" d="M2482.4,1355.53c0.31-0.21,0.65-0.36,1.02-0.43l39.51-8.14l6.06-1.25c2.4-0.49,4.22,2.14,2.9,4.21
					l-0.04,0.06l-3.13,4.91l-21.82,34.27c-0.15,0.23-0.32,0.44-0.53,0.62c-0.16,0.11-0.24,0.18-0.24,0.18s0.5-4.26-5.53-13.49
					C2497.14,1371.18,2491.51,1364.24,2482.4,1355.53z"/>
				<path class="st13" d="M2522.93,1346.96l6.06-1.25c2.4-0.49,4.22,2.14,2.9,4.21l-0.04,0.06l-3.13,4.91
					c-0.21-0.51-0.47-1.03-0.78-1.59C2526.92,1351.47,2525.34,1349.35,2522.93,1346.96z"/>
				
					<rect x="2283.29" y="1482.86" transform="matrix(0.8233 -0.5676 0.5676 0.8233 -450.9292 1566.9615)" class="st7" width="16.19" height="49.81"/>
				<path class="st7" d="M2363.13,1437.76l96.65-66.63c0,0,8.24,2.72,17.16,16.93c2.42,3.85,6.45,11.77,6.57,17.5l-96.65,66.63
					c0,0-0.61-5.25-4.43-12.55C2379.08,1453.21,2373.23,1445.2,2363.13,1437.76z"/>
				<path class="st8" d="M2264.2,1531.35l267.63-184.5c0.6,0.85,0.72,2.03,0.06,3.07l-0.04,0.06l-3.13,4.91l-21.82,34.27
					c-0.15,0.23-0.32,0.44-0.53,0.62c-0.16,0.11-0.24,0.18-0.24,0.18l-214.2,147.67c-3.65,2.52-8.41,2.23-11.71-0.39l-5.41,3.73
					c-1.49,1.03-3.53,0.65-4.56-0.84L2264.2,1531.35z"/>
			</g>
			<g>
				<path class="st7" d="M2394.4,596.13l-8.33,4.83c-1.57,0.91-3.57,0.38-4.48-1.19l-11.01-18.97c-0.91-1.57-0.38-3.58,1.19-4.49
					l8.33-4.83c1.56-0.91,3.57-0.37,4.48,1.19l11.01,18.97C2396.5,593.22,2395.96,595.23,2394.4,596.13z"/>
				<path class="st4" d="M2381.46,609.66l-225.04,130.56c-0.32,0.19-0.68,0.3-1.05,0.35l-40.02,5.04l-6.14,0.78
					c-1.22,0.16-2.22-0.46-2.74-1.36c-0.53-0.9-0.56-2.08,0.18-3.06l0.04-0.06l3.5-4.66l24.42-32.47c0.16-0.22,0.36-0.42,0.58-0.58
					c0.16-0.1,0.25-0.16,0.25-0.16l225.04-130.56c3.84-2.23,8.55-1.56,11.64,1.3c0.69,0.65,1.3,1.41,1.81,2.27l11.11,19.15
					c0.62,1.06,1.01,2.19,1.19,3.33C2386.88,603.46,2385.1,607.55,2381.46,609.66z"/>
				<path class="st6" d="M2156.42,740.22c-0.32,0.19-0.68,0.3-1.05,0.35l-40.02,5.04l-6.14,0.78c-2.43,0.3-4.04-2.47-2.57-4.42
					l0.04-0.06l3.5-4.66l24.42-32.47c0.16-0.22,0.36-0.42,0.58-0.58c0.16-0.1,0.25-0.16,0.25-0.16s-0.83,4.21,4.47,13.88
					C2142.94,723.48,2148.01,730.83,2156.42,740.22z"/>
				<path class="st13" d="M2115.35,745.61l-6.14,0.78c-2.43,0.3-4.04-2.47-2.57-4.42l0.04-0.06l3.5-4.66
					c0.17,0.52,0.39,1.07,0.66,1.65C2111.72,740.81,2113.13,743.04,2115.35,745.61z"/>
				<path class="st7" d="M2390.36,637.72l-14.92-25.71c-0.07-0.12-0.15-0.21-0.23-0.32l-19.72-33.99l-14.01,8.13l25,43.08l0.03-0.02
					l2.53,4.36c1.22,2.11,0.5,4.8-1.6,6.02l-78.37,45.47c-2.11,1.22-2.82,3.92-1.6,6.02l2.88,4.96c1.22,2.11,3.92,2.82,6.02,1.6
					l92.38-53.59C2390.87,642.52,2391.59,639.83,2390.36,637.72z"/>
				<path class="st7" d="M2284.02,667.52l-101.54,58.91c0,0-8-3.36-15.8-18.21c-2.11-4.02-5.52-12.24-5.19-17.96l101.54-58.91
					c0,0,0.2,5.28,3.44,12.86C2269.33,650.88,2274.53,659.32,2284.02,667.52z"/>
				<path class="st8" d="M2387.63,581.91l-281.17,163.12c-0.53-0.9-0.56-2.08,0.18-3.06l0.04-0.06l3.5-4.66l24.42-32.47
					c0.16-0.22,0.36-0.42,0.58-0.58c0.16-0.1,0.25-0.16,0.25-0.16l225.04-130.56c3.84-2.23,8.55-1.56,11.64,1.3l5.69-3.3
					c1.56-0.91,3.57-0.37,4.48,1.19L2387.63,581.91z"/>
			</g>
			<g>
				<path class="st14" d="M2068,841.91l287.99-72.5c17.4-4.38,35.05,6.17,39.42,23.57l37.19,147.74c0.21,0.82,0.38,1.63,0.51,2.45
					c2.86,16.58-7.5,32.8-24.08,36.98l-287.99,72.5c-16.58,4.17-33.4-5.21-38.73-21.17c-0.27-0.78-0.5-1.58-0.71-2.4l-37.19-147.74
					C2040.04,863.94,2050.6,846.29,2068,841.91z"/>
				<path class="st15" d="M2082.32,1031.48l350.79-88.31c2.86,16.58-7.5,32.8-24.08,36.98l-287.99,72.5
					C2104.47,1056.82,2087.65,1047.43,2082.32,1031.48z"/>
				
					<rect x="2160.75" y="794.27" transform="matrix(0.9697 -0.2441 0.2441 0.9697 -151.725 581.658)" class="st4" width="219.89" height="217.31"/>
				
					<rect x="2186.31" y="813.25" transform="matrix(0.9697 -0.2441 0.2441 0.9697 -158.6404 563.8243)" class="st7" width="17.98" height="217.31"/>
				
					<rect x="2336.7" y="772.47" transform="matrix(0.9697 -0.2441 0.2441 0.9697 -143.7807 602.1469)" class="st7" width="41.24" height="217.31"/>
				
					<rect x="2183.62" y="978.77" transform="matrix(0.9697 -0.2441 0.2441 0.9697 -173.2073 589.9884)" class="st8" width="219.89" height="29.98"/>
			</g>
			<g>
				<path class="st5" d="M2479.09,1038.5l66.52,185.44c3.99,11.12-1.79,23.37-12.91,27.36l-259.34,93.02
					c-11.12,3.99-23.37-1.79-27.36-12.91l-66.52-185.44c-3.99-11.12,1.79-23.37,12.91-27.36l259.34-93.02
					C2462.85,1021.59,2475.1,1027.37,2479.09,1038.5z"/>
				<path class="st16" d="M2213.69,1137.9l50.52-18.12c4-1.44,8.41,0.65,9.85,4.65l58.83,164.02c1.44,4-0.65,8.41-4.65,9.85
					l-50.52,18.12c-4,1.44-8.41-0.65-9.85-4.65l-58.83-164.02C2207.61,1143.75,2209.69,1139.33,2213.69,1137.9z"/>
				<path class="st6" d="M2213.69,1137.9l45.83-16.44l57.77,161.05c1.44,4-0.64,8.41-4.65,9.85l-45.84,16.44l-57.77-161.05
					C2207.61,1143.75,2209.69,1139.33,2213.69,1137.9z"/>
				<path class="st17" d="M2344.89,1233.34l36.58-13.12c1.86-0.67,3.84-0.43,5.43,0.49c1.29,0.74,2.33,1.92,2.87,3.43l14.36,40.04
					c1.21,3.37-0.55,7.09-3.92,8.3l-36.58,13.12c-3.37,1.21-7.09-0.55-8.3-3.92l-14.36-40.04
					C2339.76,1238.27,2341.51,1234.55,2344.89,1233.34z"/>
				<path class="st17" d="M2322.24,1170.22l36.58-13.12c1.86-0.67,3.83-0.44,5.43,0.48c1.29,0.74,2.33,1.93,2.88,3.44l14.36,40.04
					c1.21,3.38-0.54,7.1-3.92,8.31l-36.58,13.12c-3.37,1.21-7.09-0.55-8.31-3.93l-14.36-40.04
					C2317.11,1175.14,2318.87,1171.43,2322.24,1170.22z"/>
				<path class="st17" d="M2299.6,1107.08l36.58-13.12c3.37-1.21,7.09,0.55,8.3,3.92l14.36,40.04c1.21,3.37-0.55,7.09-3.92,8.3
					l-36.58,13.12c-3.37,1.21-7.09-0.55-8.3-3.92l-14.36-40.04C2294.47,1112.01,2296.23,1108.29,2299.6,1107.08z"/>
				<path class="st17" d="M2401.32,1212.8l36.58-13.12c1.86-0.67,3.83-0.44,5.43,0.48c1.29,0.74,2.33,1.93,2.88,3.44l14.36,40.04
					c1.21,3.38-0.55,7.09-3.92,8.3l-36.58,13.12c-3.37,1.21-7.09-0.54-8.3-3.92l-14.36-40.04
					C2396.19,1217.73,2397.94,1214.01,2401.32,1212.8z"/>
				<path class="st17" d="M2378.67,1149.67l36.58-13.12c1.86-0.67,3.83-0.44,5.43,0.48c1.29,0.74,2.34,1.93,2.88,3.44l14.36,40.04
					c1.21,3.37-0.55,7.09-3.92,8.3l-36.58,13.12c-3.37,1.21-7.09-0.55-8.3-3.92l-14.36-40.04
					C2373.54,1154.6,2375.3,1150.88,2378.67,1149.67z"/>
				<path class="st18" d="M2457.84,1192.53l36.58-13.12c3.37-1.21,7.09,0.54,8.3,3.92l14.36,40.04c1.21,3.38-0.55,7.09-3.92,8.3
					l-36.58,13.12c-3.37,1.21-7.09-0.54-8.3-3.92l-14.36-40.04C2452.71,1197.45,2454.47,1193.74,2457.84,1192.53z"/>
				<path class="st17" d="M2435.2,1129.4l36.58-13.12c3.37-1.21,7.09,0.55,8.3,3.92l14.36,40.04c1.21,3.37-0.55,7.09-3.92,8.3
					l-36.58,13.12c-3.37,1.21-7.09-0.55-8.3-3.92l-14.36-40.04C2430.07,1134.33,2431.82,1130.61,2435.2,1129.4z"/>
				<path class="st17" d="M2358.9,1085.52l87.36-31.34c4.96-1.78,10.42,0.8,12.2,5.75l12.31,34.31c1.78,4.95-0.8,10.42-5.76,12.2
					l-87.36,31.34c-4.56,1.64-9.55-0.41-11.7-4.61c-0.19-0.36-0.36-0.75-0.5-1.15l-12.31-34.31
					C2351.36,1092.76,2353.94,1087.29,2358.9,1085.52z"/>
				<path class="st4" d="M2344.89,1233.34l33.51-12.02l13.76,38.35c1.21,3.37-0.55,7.09-3.92,8.3l-33.51,12.02l-13.76-38.35
					C2339.76,1238.27,2341.51,1234.55,2344.89,1233.34z"/>
				<path class="st4" d="M2322.24,1170.22l33.51-12.02l13.75,38.35c1.21,3.38-0.55,7.09-3.92,8.3l-33.51,12.02l-13.75-38.35
					C2317.11,1175.14,2318.87,1171.43,2322.24,1170.22z"/>
				<path class="st4" d="M2299.6,1107.08l33.51-12.02l13.76,38.35c1.21,3.37-0.55,7.09-3.92,8.3l-33.51,12.02l-13.76-38.35
					C2294.47,1112.01,2296.23,1108.29,2299.6,1107.08z"/>
				<path class="st14" d="M2389.77,1224.14l12.89,35.93c-1.29-0.74-2.33-1.93-2.88-3.44l-12.89-35.92
					C2388.19,1221.45,2389.23,1222.63,2389.77,1224.14z"/>
				<path class="st4" d="M2401.32,1212.8l33.51-12.02l13.75,38.35c1.21,3.38-0.55,7.09-3.92,8.3l-33.51,12.02l-13.75-38.35
					C2396.19,1217.73,2397.94,1214.01,2401.32,1212.8z"/>
				<path class="st14" d="M2367.13,1161.01l12.89,35.93c-1.29-0.74-2.33-1.92-2.87-3.43l-12.89-35.93
					C2365.54,1158.32,2366.58,1159.5,2367.13,1161.01z"/>
				<path class="st4" d="M2378.67,1149.67l33.51-12.02l13.76,38.35c1.21,3.37-0.55,7.09-3.92,8.3l-33.51,12.02l-13.76-38.35
					C2373.54,1154.6,2375.3,1150.88,2378.67,1149.67z"/>
				<path class="st17" d="M2446.2,1203.6l12.98,36.19c-1.29-0.74-2.33-1.93-2.88-3.44l-12.98-36.19
					C2444.62,1200.9,2445.66,1202.09,2446.2,1203.6z"/>
				<path class="st4" d="M2457.84,1192.53l33.51-12.02l13.75,38.35c1.21,3.38-0.55,7.09-3.92,8.3l-33.51,12.02l-13.75-38.35
					C2452.71,1197.45,2454.47,1193.74,2457.84,1192.53z"/>
				<path class="st17" d="M2423.55,1140.47l12.98,36.19c-1.29-0.74-2.33-1.92-2.87-3.43l-12.99-36.2
					C2421.97,1137.77,2423.01,1138.96,2423.55,1140.47z"/>
				<path class="st4" d="M2435.2,1129.4l33.51-12.02l13.76,38.35c1.21,3.37-0.55,7.09-3.92,8.3l-33.51,12.02l-13.76-38.35
					C2430.07,1134.33,2431.82,1130.61,2435.2,1129.4z"/>
				<path class="st4" d="M2362.56,1084.2l87.09-31.24c0.19,0.36,0.36,0.75,0.5,1.15l12.31,34.31c1.78,4.95-0.8,10.42-5.76,12.2
					l-87.09,31.24c-0.19-0.36-0.36-0.75-0.5-1.15l-12.31-34.31C2355.02,1091.44,2357.6,1085.98,2362.56,1084.2z"/>
			</g>
			<g>
				<path class="st17" d="M348.57-33.47l64.32,187.67l-5.05,41.62l-29.51-29.78L314.01-21.62c-1.99-5.81,1.1-12.13,6.91-14.12
					l13.54-4.64C340.26-42.37,346.58-39.27,348.57-33.47z"/>
				<polygon class="st12" points="412.75,153.8 412.89,154.21 408.89,187.22 407.84,195.83 401.74,189.67 378.33,166.05 
					378.18,165.61 381.79,158.79 389.44,162.24 394.2,154.54 401.4,158.15 405.97,150.5 				"/>
				<path class="st14" d="M348.57-33.47l4.2,12.26L318.21-9.36l-4.2-12.26c-1.99-5.81,1.1-12.13,6.91-14.12l13.54-4.64
					C340.26-42.37,346.58-39.27,348.57-33.47z"/>
				
					<rect x="316.14" y="-21.83" transform="matrix(0.946 -0.3242 0.3242 0.946 24.0481 107.418)" class="st19" width="36.53" height="6.72"/>
				<g>
					
						<rect x="352.89" y="-12.47" transform="matrix(0.946 -0.3242 0.3242 0.946 -5.403 118.6234)" class="st19" width="0.85" height="176"/>
				</g>
				<g>
					
						<rect x="365.35" y="-16.74" transform="matrix(0.946 -0.3241 0.3241 0.946 -3.3509 122.3909)" class="st19" width="0.85" height="176"/>
				</g>
				<g>
					
						<rect x="377.05" y="-20.75" transform="matrix(0.946 -0.3242 0.3242 0.946 -1.4141 126.0083)" class="st19" width="0.85" height="176"/>
				</g>
				<polygon class="st20" points="408.89,187.22 407.84,195.83 401.74,189.67 				"/>
				<path class="st8" d="M327.69-38.06l80.16,233.89l-29.51-29.78L314.01-21.62c-1.99-5.81,1.1-12.13,6.91-14.12L327.69-38.06z"/>
			</g>
			<g>
				<path class="st17" d="M1618.04-76.61l-40.73,226.19l-28.57,39.27l-13.08-46.77l40.73-226.19c1.26-7,7.95-11.65,14.95-10.39
					l16.32,2.94C1614.65-90.31,1619.3-83.61,1618.04-76.61z"/>
				<polygon class="st12" points="1577.4,149.09 1577.32,149.58 1554.65,180.73 1548.74,188.86 1546.03,179.18 1535.66,142.08 
					1535.76,141.55 1543.25,136.68 1549.06,144.49 1558.21,139.38 1563.46,147.09 1572.4,141.93 				"/>
				<path class="st14" d="M1618.04-76.61l-2.66,14.78l-41.65-7.5l2.66-14.78c1.26-7,7.95-11.65,14.95-10.39l16.32,2.94
					C1614.65-90.31,1619.3-83.61,1618.04-76.61z"/>
				
					<rect x="1591.35" y="-90.58" transform="matrix(0.1772 -0.9842 0.9842 0.1772 1380.8794 1512.8828)" class="st19" width="7.79" height="42.32"/>
				<g>
					
						<rect x="1459.44" y="35.87" transform="matrix(0.1772 -0.9842 0.9842 0.1772 1248.8854 1566.5922)" class="st19" width="203.89" height="0.98"/>
				</g>
				<g>
					
						<rect x="1474.47" y="38.58" transform="matrix(0.1772 -0.9842 0.9842 0.1772 1258.5831 1583.6018)" class="st19" width="203.89" height="0.98"/>
				</g>
				<g>
					
						<rect x="1488.56" y="41.12" transform="matrix(0.1772 -0.9842 0.9842 0.1772 1267.6821 1599.5613)" class="st19" width="203.89" height="0.98"/>
				</g>
				<polygon class="st20" points="1554.65,180.73 1548.74,188.86 1546.03,179.18 				"/>
				<path class="st8" d="M1599.5-93.04l-50.76,281.89l-13.08-46.77l40.73-226.19c1.26-7,7.95-11.65,14.95-10.39L1599.5-93.04z"/>
			</g>
			<g>
				<path class="st5" d="M1490.63-98.8l-418.54,234.14l332.71,98.51l101-341.14L1490.63-98.8z M1220.24,117.36l187.79-105.05
					l-43.73,147.7L1220.24,117.36z"/>
				<polygon class="st8" points="1364.44,159.57 1365.81,160.46 1363.18,169.37 1205.96,122.82 1220.24,117.36 1364.3,160.01 				
					"/>
				<polygon class="st8" points="1505.81,-107.29 1404.8,233.84 1393.16,230.4 1490.63,-98.8 				"/>
				<g>
					
						<rect x="1092.94" y="135.96" transform="matrix(0.2839 -0.9589 0.9589 0.2839 655.326 1151.7821)" class="st4" width="11.67" height="2.38"/>
					<g>
						
							<rect x="1100.16" y="140.79" transform="matrix(0.2839 -0.9589 0.9589 0.2839 654.6307 1159.1027)" class="st4" width="6.34" height="0.98"/>
						
							<rect x="1105.32" y="142.31" transform="matrix(0.2839 -0.9589 0.9589 0.2839 656.8803 1165.152)" class="st4" width="6.34" height="0.98"/>
						
							<rect x="1110.48" y="143.84" transform="matrix(0.2839 -0.9589 0.9589 0.2839 659.09 1171.1835)" class="st4" width="6.34" height="0.98"/>
						
							<rect x="1115.64" y="145.37" transform="matrix(0.2839 -0.9589 0.9589 0.2839 661.3197 1177.2239)" class="st4" width="6.34" height="0.98"/>
						
							<rect x="1120.8" y="146.9" transform="matrix(0.2839 -0.9589 0.9589 0.2839 663.5696 1183.2733)" class="st4" width="6.34" height="0.98"/>
					</g>
				</g>
				<g>
					
						<rect x="1124.63" y="145.34" transform="matrix(0.2839 -0.9589 0.9589 0.2839 669.0214 1188.8784)" class="st4" width="11.67" height="2.38"/>
					<g>
						
							<rect x="1131.84" y="150.17" transform="matrix(0.2839 -0.9589 0.9589 0.2839 668.3235 1196.198)" class="st4" width="6.34" height="0.98"/>
						
							<rect x="1137" y="151.69" transform="matrix(0.2839 -0.9589 0.9589 0.2839 670.5691 1202.2454)" class="st4" width="6.34" height="0.98"/>
						
							<rect x="1142.16" y="153.22" transform="matrix(0.2839 -0.9589 0.9589 0.2839 672.7829 1208.2787)" class="st4" width="6.34" height="0.98"/>
						
							<rect x="1147.32" y="154.75" transform="matrix(0.2839 -0.9589 0.9589 0.2839 675.0126 1214.3191)" class="st4" width="6.34" height="0.98"/>
						
							<rect x="1152.48" y="156.28" transform="matrix(0.2839 -0.9589 0.9589 0.2839 677.2584 1220.3667)" class="st4" width="6.34" height="0.98"/>
					</g>
				</g>
				<g>
					
						<rect x="1156.31" y="154.72" transform="matrix(0.2839 -0.9589 0.9589 0.2839 682.7117 1225.9725)" class="st4" width="11.67" height="2.38"/>
					<g>
						
							<rect x="1163.52" y="159.55" transform="matrix(0.2839 -0.9589 0.9589 0.2839 682.0165 1233.2931)" class="st4" width="6.34" height="0.98"/>
						
							<rect x="1168.68" y="161.07" transform="matrix(0.2839 -0.9589 0.9589 0.2839 684.2672 1239.3431)" class="st4" width="6.34" height="0.98"/>
						
							<rect x="1173.84" y="162.6" transform="matrix(0.2839 -0.9589 0.9589 0.2839 686.4758 1245.3739)" class="st4" width="6.34" height="0.98"/>
						
							<rect x="1179" y="164.13" transform="matrix(0.2839 -0.9589 0.9589 0.2839 688.7055 1251.4143)" class="st4" width="6.34" height="0.98"/>
						
							<rect x="1184.16" y="165.66" transform="matrix(0.2839 -0.9589 0.9589 0.2839 690.9565 1257.4645)" class="st4" width="6.34" height="0.98"/>
					</g>
				</g>
				<g>
					
						<rect x="1187.99" y="164.1" transform="matrix(0.2839 -0.9589 0.9589 0.2839 696.4072 1263.0688)" class="st4" width="11.67" height="2.38"/>
					<g>
						
							<rect x="1195.21" y="168.93" transform="matrix(0.2839 -0.9589 0.9589 0.2839 695.7094 1270.3884)" class="st4" width="6.34" height="0.98"/>
						
							<rect x="1200.36" y="170.45" transform="matrix(0.2839 -0.9589 0.9589 0.2839 697.9557 1276.4364)" class="st4" width="6.34" height="0.98"/>
						
							<rect x="1205.52" y="171.98" transform="matrix(0.2839 -0.9589 0.9589 0.2839 700.1688 1282.4691)" class="st4" width="6.34" height="0.98"/>
						
							<rect x="1210.68" y="173.51" transform="matrix(0.2839 -0.9589 0.9589 0.2839 702.3984 1288.5095)" class="st4" width="6.34" height="0.98"/>
						
							<rect x="1215.84" y="175.04" transform="matrix(0.2839 -0.9589 0.9589 0.2839 704.645 1294.5577)" class="st4" width="6.34" height="0.98"/>
					</g>
				</g>
				<g>
					
						<rect x="1219.67" y="173.48" transform="matrix(0.2839 -0.9589 0.9589 0.2839 710.0974 1300.1628)" class="st4" width="11.67" height="2.38"/>
					<g>
						
							<rect x="1226.89" y="178.31" transform="matrix(0.2839 -0.9589 0.9589 0.2839 709.4023 1307.4835)" class="st4" width="6.34" height="0.98"/>
						
							<rect x="1232.05" y="179.84" transform="matrix(0.2839 -0.9589 0.9589 0.2839 711.649 1313.5319)" class="st4" width="6.34" height="0.98"/>
						
							<rect x="1237.2" y="181.36" transform="matrix(0.2839 -0.9589 0.9589 0.2839 713.8616 1319.5643)" class="st4" width="6.34" height="0.98"/>
						
							<rect x="1242.36" y="182.89" transform="matrix(0.2839 -0.9589 0.9589 0.2839 716.0913 1325.6047)" class="st4" width="6.34" height="0.98"/>
						
							<rect x="1247.52" y="184.42" transform="matrix(0.2839 -0.9589 0.9589 0.2839 718.3434 1331.6555)" class="st4" width="6.34" height="0.98"/>
					</g>
				</g>
				<g>
					
						<rect x="1251.35" y="182.86" transform="matrix(0.2839 -0.9589 0.9589 0.2839 723.7932 1337.2594)" class="st4" width="11.67" height="2.38"/>
					<g>
						
							<rect x="1258.57" y="187.69" transform="matrix(0.2839 -0.9589 0.9589 0.2839 723.0952 1344.5789)" class="st4" width="6.34" height="0.98"/>
						
							<rect x="1263.73" y="189.22" transform="matrix(0.2839 -0.9589 0.9589 0.2839 725.3424 1350.6273)" class="st4" width="6.34" height="0.98"/>
						
							<rect x="1268.89" y="190.74" transform="matrix(0.2839 -0.9589 0.9589 0.2839 727.5546 1356.6595)" class="st4" width="6.34" height="0.98"/>
						
							<rect x="1274.05" y="192.27" transform="matrix(0.2839 -0.9589 0.9589 0.2839 729.7842 1362.7)" class="st4" width="6.34" height="0.98"/>
						
							<rect x="1279.2" y="193.8" transform="matrix(0.2839 -0.9589 0.9589 0.2839 732.0316 1368.7487)" class="st4" width="6.34" height="0.98"/>
					</g>
				</g>
				<g>
					
						<rect x="1283.03" y="192.24" transform="matrix(0.2839 -0.9589 0.9589 0.2839 737.4929 1374.3578)" class="st4" width="11.67" height="2.38"/>
					<g>
						
							<rect x="1290.25" y="197.07" transform="matrix(0.2839 -0.9589 0.9589 0.2839 736.7881 1381.674)" class="st4" width="6.34" height="0.98"/>
						
							<rect x="1295.41" y="198.6" transform="matrix(0.2839 -0.9589 0.9589 0.2839 739.0177 1387.7144)" class="st4" width="6.34" height="0.98"/>
						
							<rect x="1300.57" y="200.12" transform="matrix(0.2839 -0.9589 0.9589 0.2839 741.2654 1393.7633)" class="st4" width="6.34" height="0.98"/>
						
							<rect x="1305.73" y="201.65" transform="matrix(0.2839 -0.9589 0.9589 0.2839 743.4771 1399.7952)" class="st4" width="6.34" height="0.98"/>
						
							<rect x="1310.89" y="203.18" transform="matrix(0.2839 -0.9589 0.9589 0.2839 745.7068 1405.8356)" class="st4" width="6.34" height="0.98"/>
					</g>
				</g>
				<g>
					
						<rect x="1314.72" y="201.62" transform="matrix(0.2839 -0.9589 0.9589 0.2839 751.1889 1411.4546)" class="st4" width="11.67" height="2.38"/>
					<g>
						
							<rect x="1321.93" y="206.45" transform="matrix(0.2839 -0.9589 0.9589 0.2839 750.4864 1418.7717)" class="st4" width="6.34" height="0.98"/>
						
							<rect x="1327.09" y="207.98" transform="matrix(0.2839 -0.9589 0.9589 0.2839 752.7106 1424.8096)" class="st4" width="6.34" height="0.98"/>
						
							<rect x="1332.25" y="209.5" transform="matrix(0.2839 -0.9589 0.9589 0.2839 754.9588 1430.8588)" class="st4" width="6.34" height="0.98"/>
						
							<rect x="1337.41" y="211.03" transform="matrix(0.2839 -0.9589 0.9589 0.2839 757.1755 1436.8929)" class="st4" width="6.34" height="0.98"/>
						
							<rect x="1342.57" y="212.56" transform="matrix(0.2839 -0.9589 0.9589 0.2839 759.3997 1442.9308)" class="st4" width="6.34" height="0.98"/>
					</g>
				</g>
				<g>
					
						<rect x="1346.4" y="211" transform="matrix(0.2839 -0.9589 0.9589 0.2839 764.8791 1448.5485)" class="st4" width="11.67" height="2.38"/>
					<g>
						
							<rect x="1353.61" y="215.83" transform="matrix(0.2839 -0.9589 0.9589 0.2839 764.1739 1455.8644)" class="st4" width="6.34" height="0.98"/>
						
							<rect x="1358.77" y="217.36" transform="matrix(0.2839 -0.9589 0.9589 0.2839 766.4036 1461.9048)" class="st4" width="6.34" height="0.98"/>
						
							<rect x="1363.93" y="218.88" transform="matrix(0.2839 -0.9589 0.9589 0.2839 768.6521 1467.9542)" class="st4" width="6.34" height="0.98"/>
						
							<rect x="1369.09" y="220.41" transform="matrix(0.2839 -0.9589 0.9589 0.2839 770.8629 1473.9856)" class="st4" width="6.34" height="0.98"/>
						
							<rect x="1374.25" y="221.94" transform="matrix(0.2839 -0.9589 0.9589 0.2839 773.0926 1480.026)" class="st4" width="6.34" height="0.98"/>
					</g>
				</g>
			</g>
			<g>
				<path class="st7" d="M638.62-19.51l170.54-19.33c14.36-1.63,27.31,8.69,28.94,23.05l27.05,238.64
					c1.63,14.36-8.69,27.31-23.05,28.94l-170.54,19.33c-14.36,1.63-27.31-8.69-28.94-23.05L615.57,9.43
					C613.94-4.93,624.26-17.89,638.62-19.51z"/>
				
					<rect x="675.39" y="-14.06" transform="matrix(-0.9936 0.1126 -0.1126 -0.9936 1497.7019 146.6858)" class="st8" width="138.64" height="259.4"/>
				
					<rect x="771.03" y="-19.46" transform="matrix(0.9936 -0.1126 0.1126 0.9936 -7.3742 89.9338)" class="st10" width="42.69" height="259.4"/>
				
					<rect x="803.83" y="-21.31" transform="matrix(0.9936 -0.1126 0.1126 0.9936 -7.0616 91.7629)" class="st16" width="9.79" height="259.4"/>
				
					<rect x="675.57" y="-10.8" transform="matrix(0.9936 -0.1126 0.1126 0.9936 -8.8343 81.3913)" class="st10" width="80.91" height="259.4"/>
				
					<rect x="746.47" y="-14.81" transform="matrix(0.9936 -0.1126 0.1126 0.9936 -8.1585 85.3451)" class="st16" width="9.79" height="259.4"/>
				<polygon class="st11" points="694.13,150.21 717.24,147.59 726.53,126.26 712.71,107.56 689.59,110.18 680.3,131.5 				"/>
				<polygon class="st12" points="698.77,139.55 710.33,138.24 714.98,127.57 708.06,118.22 696.51,119.53 691.86,130.19 				"/>
			</g>
			<g>
				<path class="st6" d="M1668.76,139.34l51.32-139.19h362.3c0,0-71.66,122.63-121.3,213.55
					C1961.08,213.7,1746.89,168.38,1668.76,139.34z"/>
				<polygon class="st4" points="1709.46,0.15 1673.48,97.11 1668.76,139.34 1722.29,0.15 				"/>
				<path class="st4" d="M1936.08,189.86L1936.08,189.86c3.8,1.83,5.41,6.43,3.58,10.22l-6.64,13.81c-1.83,3.8-6.43,5.41-10.22,3.58
					l0,0c-3.8-1.83-5.41-6.43-3.58-10.22l6.64-13.81C1927.69,189.64,1932.29,188.03,1936.08,189.86z"/>
				<path class="st4" d="M1882.21,175.3L1882.21,175.3c3.8,1.83,5.41,6.43,3.58,10.22l-6.64,13.81c-1.83,3.8-6.43,5.41-10.22,3.58
					l0,0c-3.8-1.83-5.41-6.43-3.58-10.22l6.64-13.81C1873.82,175.08,1878.42,173.47,1882.21,175.3z"/>
				<path class="st4" d="M1828.34,160.74L1828.34,160.74c3.8,1.83,5.41,6.43,3.58,10.22l-6.64,13.81c-1.83,3.8-6.43,5.41-10.22,3.58
					h0c-3.8-1.83-5.41-6.43-3.58-10.22l6.64-13.81C1819.94,160.53,1824.54,158.91,1828.34,160.74z"/>
				<path class="st4" d="M1774.47,146.18L1774.47,146.18c3.8,1.83,5.41,6.43,3.58,10.22l-6.64,13.81c-1.83,3.8-6.43,5.41-10.22,3.58
					l0,0c-3.8-1.83-5.41-6.43-3.58-10.22l6.64-13.81C1766.07,145.97,1770.67,144.36,1774.47,146.18z"/>
				<path class="st4" d="M1720.59,131.62L1720.59,131.62c3.8,1.83,5.41,6.43,3.58,10.22l-6.64,13.81c-1.83,3.8-6.43,5.41-10.22,3.58
					l0,0c-3.8-1.83-5.41-6.43-3.58-10.22l6.64-13.81C1712.2,131.41,1716.8,129.8,1720.59,131.62z"/>
				<g>
					<g>
						
							<rect x="1847.36" y="6.72" transform="matrix(0.2428 -0.9701 0.9701 0.2428 1279.4949 1886.0442)" class="st21" width="1" height="233.43"/>
					</g>
					<g>
						
							<rect x="1863.8" y="-30.74" transform="matrix(0.2428 -0.9701 0.9701 0.2428 1328.293 1873.6279)" class="st21" width="1" height="233.43"/>
					</g>
					<g>
						
							<rect x="1880.55" y="-75.3" transform="matrix(0.2428 -0.9701 0.9701 0.2428 1384.2034 1856.1281)" class="st21" width="1" height="233.43"/>
					</g>
					<g>
						<polygon class="st21" points="1880.29,0.15 1884.41,0.15 2010.84,31.79 2010.71,32.28 2010.59,32.76 						"/>
					</g>
				</g>
			</g>
		</g>
		<g class="st3">
			<polygon class="st6" points="325.47,328.6 341.91,295.63 360.8,327.26 393.77,343.69 362.15,362.59 345.71,395.56 326.82,363.93 
				293.84,347.5 			"/>
			<polygon class="st6" points="1843.6,287.24 1860.04,254.27 1878.93,285.9 1911.9,302.33 1880.27,321.23 1863.84,354.2 
				1844.94,322.57 1811.97,306.14 			"/>
			<polygon class="st6" points="1805,389.1 1811.25,376.56 1818.43,388.59 1830.97,394.84 1818.95,402.02 1812.7,414.56 
				1805.51,402.53 1792.97,396.28 			"/>
			<polygon class="st6" points="1758.62,273.08 1767.99,254.27 1778.77,272.32 1797.59,281.69 1779.54,292.47 1770.16,311.29 
				1759.38,293.24 1740.57,283.86 			"/>
			<polygon class="st6" points="325.47,1709.37 341.91,1676.4 360.8,1708.02 393.77,1724.46 362.15,1743.35 345.71,1776.33 
				326.82,1744.7 293.84,1728.26 			"/>
			<polygon class="st6" points="189.35,1252.93 197.81,1235.96 207.54,1252.24 224.51,1260.7 208.23,1270.43 199.77,1287.41 
				190.04,1271.12 173.06,1262.66 			"/>
			<polygon class="st6" points="222.35,1200.84 226.86,1191.79 232.05,1200.48 241.1,1204.99 232.42,1210.18 227.9,1219.23 
				222.72,1210.55 213.66,1206.03 			"/>
			<polygon class="st6" points="2133.13,1485.71 2149.57,1452.74 2168.46,1484.37 2201.43,1500.8 2169.81,1519.69 2153.37,1552.67 
				2134.48,1521.04 2101.5,1504.6 			"/>
			<polygon class="st6" points="2050.82,1516.84 2057.87,1502.7 2065.98,1516.27 2080.12,1523.32 2066.55,1531.42 2059.5,1545.56 
				2051.4,1532 2037.26,1524.95 			"/>
			<polygon class="st6" points="2093.64,1440.25 2100.69,1426.11 2108.79,1439.67 2122.94,1446.72 2109.37,1454.83 2102.32,1468.97 
				2094.22,1455.4 2080.07,1448.35 			"/>
			<polygon class="st6" points="381.61,1650.32 388.01,1637.47 395.37,1649.79 408.21,1656.19 395.89,1663.55 389.49,1676.4 
				382.13,1664.08 369.29,1657.68 			"/>
			<polygon class="st6" points="428.08,1693.72 434.48,1680.88 441.84,1693.2 454.68,1699.6 442.36,1706.96 435.96,1719.8 
				428.6,1707.48 415.76,1701.08 			"/>
			<polygon class="st6" points="425.07,382.62 431.73,369.25 439.39,382.07 452.76,388.74 439.94,396.4 433.27,409.77 
				425.61,396.95 412.24,390.28 			"/>
		</g>
	</g>
</g>
</svg>
